<svg width="16" height="16" viewBox="0 0 16 16" fill="none" xmlns="http://www.w3.org/2000/svg">
<g clip-path="url(#clip0)">
<path d="M15.271 0.729695C14.2984 -0.242906 12.7159 -0.242906 11.7433 0.729695L9.74202 2.73096C9.27286 1.47381 8.06002 0.57609 6.6413 0.57609C4.8171 0.57609 3.33299 2.06017 3.33299 3.88436C3.33299 4.97753 3.8661 5.94842 4.68584 6.55112C4.69159 6.5559 4.697 6.56093 4.70306 6.56549C4.71575 6.57506 4.72888 6.58362 4.74219 6.59171C5.06237 6.81698 5.42405 6.98705 5.81339 7.08775L4.70184 8.54867L4.16934 9.24594C3.56404 10.0221 2.84893 10.8255 1.93305 11.7578C1.64169 11.7073 1.33094 11.794 1.1064 12.0185L0.137795 12.9873C-0.0452807 13.1703 -0.0452807 13.4671 0.137795 13.6502L2.35052 15.8629C2.44206 15.9545 2.56203 16.0003 2.68198 16.0003C2.80196 16.0003 2.92193 15.9545 3.01344 15.8629L3.98207 14.8943C4.20643 14.67 4.29322 14.3595 4.243 14.0684C5.32173 13.0141 6.37265 12.1071 7.44845 11.3016C7.44942 11.3009 7.45039 11.3001 7.45132 11.2994L10.2265 9.18793C10.2331 9.1829 10.2396 9.17768 10.2459 9.17231C10.7287 8.76271 11.2004 8.32806 11.6479 7.88052L15.271 4.25748C16.2436 3.28482 16.2436 1.7023 15.271 0.729695ZM9.01203 3.88436C9.01203 4.46815 8.79952 5.00294 8.44833 5.4165C8.20597 4.94244 8.0789 4.41846 8.0789 3.87845C8.0789 3.34001 8.20435 2.81775 8.44371 2.34691C8.79761 2.76119 9.01203 3.29807 9.01203 3.88436ZM7.69394 1.76099C7.33166 2.40397 7.14133 3.12937 7.14133 3.87845C7.14133 4.63001 7.334 5.35737 7.70034 6.00445C7.38135 6.16443 7.02179 6.25506 6.6413 6.25506C6.28702 6.25506 5.95093 6.1764 5.64879 6.03652C6.02631 5.38444 6.22377 4.64773 6.22377 3.87845C6.22377 3.11793 6.02669 2.38344 5.65191 1.7308C5.95328 1.59179 6.28824 1.51366 6.6413 1.51366C7.01926 1.51366 7.37657 1.60301 7.69394 1.76099ZM4.27059 3.88436C4.27059 3.27038 4.50527 2.71021 4.88954 2.28871C5.14981 2.77637 5.28623 3.31841 5.28623 3.87845C5.28623 4.44568 5.149 4.98972 4.88676 5.47707C4.50408 5.05588 4.27059 4.4969 4.27059 3.88436ZM5.39811 11.7417L4.26606 10.6097C4.47661 10.3625 4.67469 10.1203 4.86295 9.88058L6.12426 11.1419C5.88168 11.3362 5.63982 11.5359 5.39811 11.7417ZM2.71592 12.2983C3.05016 11.9558 3.35859 11.6293 3.64499 11.3145L4.69137 12.3608C4.36332 12.6565 4.03439 12.9647 3.70333 13.2857L2.71592 12.2983ZM3.31915 14.2313L2.68198 14.8685L1.13221 13.3187L1.77004 12.6809L1.77326 12.6816L3.31978 14.2281L3.31915 14.2313ZM14.6081 3.59446L10.985 7.21751C10.5584 7.6441 10.1089 8.05851 9.64883 8.44932L6.88522 10.552C6.88047 10.5556 6.87572 10.5592 6.87097 10.5628L5.4379 9.12968L5.44749 9.11708L6.92079 7.18072C8.61466 7.03834 9.9496 5.61442 9.9496 3.88436C9.9496 3.8728 9.94929 3.8613 9.94916 3.84973L12.4063 1.39265C13.0133 0.785606 14.001 0.785606 14.6081 1.39265C15.2151 1.99969 15.2151 2.98742 14.6081 3.59446Z" fill="white"/>
</g>
<defs>
<clipPath id="clip0">
<rect width="16" height="16" fill="white"/>
</clipPath>
</defs>
</svg>
