<svg width="16" height="16" viewBox="0 0 16 16" fill="none" xmlns="http://www.w3.org/2000/svg">
<g opacity="0.8">
<path d="M13.6569 2.34316C12.1458 0.832156 10.1369 0 8 0C5.86312 0 3.85416 0.832156 2.34313 2.34316C0.832156 3.85416 0 5.86312 0 8C0 10.1369 0.832156 12.1459 2.34313 13.6569C3.85416 15.1678 5.86312 16 8 16C10.1369 16 12.1458 15.1678 13.6569 13.6569C15.1678 12.1459 16 10.1369 16 8C16 5.86312 15.1678 3.85416 13.6569 2.34316ZM15.0537 8.35622C14.0946 9.10178 13.0322 9.68725 11.8926 10.0975C11.3885 10.279 10.8739 10.4237 10.3514 10.5326C10.3671 9.76078 10.6977 8.99341 11.3251 8.3195C12.9264 6.59956 13.4851 4.88006 13.677 3.79644C14.5764 5.00572 15.0625 6.4655 15.0625 8C15.0625 8.11922 15.0595 8.23797 15.0537 8.35622ZM9.73987 12.1352C10.1268 13.0241 10.8183 13.7289 11.5921 14.0837C10.6474 14.6437 9.58316 14.9743 8.46875 15.0468V11.7035C8.83328 11.6897 9.19563 11.6602 9.55525 11.6152C9.60428 11.7913 9.66581 11.9651 9.73987 12.1352ZM6.53853 9.97313C6.40503 9.14775 6.00887 8.37647 5.36106 7.68069C4.16419 6.39519 3.63075 5.11647 3.394 4.27012C3.20625 3.599 3.16969 3.08525 3.16378 2.85359C4.36431 1.72369 5.89372 1.05978 7.53125 0.953188V10.7663C7.21391 10.754 6.89841 10.7286 6.58509 10.6906C6.59209 10.451 6.577 10.2109 6.53853 9.97313ZM9.41478 10.6877C9.10153 10.7264 8.78606 10.7526 8.46875 10.7655V0.953188C10.1063 1.05978 11.6357 1.72369 12.8362 2.85363C12.8303 3.08531 12.7937 3.59906 12.606 4.27012C12.3692 5.11647 11.8358 6.39519 10.6389 7.68069C9.99109 8.37647 9.59497 9.14775 9.46144 9.97313C9.42312 10.21 9.408 10.4491 9.41478 10.6877ZM6.44394 11.6179C6.80384 11.6623 7.16647 11.6911 7.53125 11.7042V15.0468C6.41687 14.9742 5.35259 14.6437 4.40791 14.0837C5.18169 13.7289 5.87322 13.0241 6.26016 12.1352C6.33378 11.966 6.39503 11.7931 6.44394 11.6179ZM2.32297 3.79647C2.51497 4.88006 3.07359 6.59959 4.67491 8.31953C5.30369 8.99491 5.63447 9.76409 5.64875 10.5376C5.12287 10.4292 4.60494 10.2845 4.09766 10.1026C2.96278 9.69575 1.90416 9.11519 0.9475 8.37581C0.941 8.25106 0.9375 8.12581 0.9375 8C0.9375 6.4655 1.42362 5.00572 2.32297 3.79647ZM1.13297 9.65959C1.95972 10.2054 2.84641 10.6499 3.78125 10.9851C4.34678 11.1879 4.92444 11.3481 5.51103 11.4664C5.4795 11.5652 5.443 11.6635 5.40053 11.761C5.00878 12.6611 4.19925 13.3264 3.43828 13.3917C3.28975 13.2656 3.14538 13.1333 3.00606 12.9939C2.07262 12.0605 1.43313 10.9116 1.13297 9.65959ZM12.9939 12.9939C12.8546 13.1333 12.7102 13.2656 12.5617 13.3917C11.8008 13.3264 10.9913 12.6611 10.5995 11.761C10.5563 11.662 10.5193 11.5622 10.4875 11.4618C11.0717 11.3428 11.6469 11.1823 12.2101 10.9796C13.1502 10.6412 14.0413 10.1922 14.8715 9.64078C14.5732 10.9001 13.9321 12.0558 12.9939 12.9939Z" fill="white"/>
</g>
</svg>
