<svg width="16" height="16" viewBox="0 0 16 16" fill="none" xmlns="http://www.w3.org/2000/svg">
<g clip-path="url(#clip0)">
<path d="M15.998 1.80062C15.9921 1.32244 15.8028 0.872902 15.4647 0.534836C15.1266 0.196769 14.6771 0.00738084 14.1989 0.00153377C12.9916 -0.0129744 11.1438 0.068603 9.19667 0.542153C6.83283 1.11704 4.92334 2.11948 3.52117 3.52165C2.11903 4.92379 1.11659 6.83331 0.541703 9.19712C0.0681847 11.1442 -0.0136429 12.9921 0.00108418 14.1994C0.00693124 14.6775 0.196289 15.1271 0.534386 15.4651C0.872422 15.8032 1.32193 15.9926 1.8001 15.9984C1.88353 15.9994 1.96995 16 2.05928 16C3.26315 16 4.98979 15.8986 6.80234 15.4578C9.16618 14.8829 11.0757 13.8805 12.4778 12.4784C13.88 11.0762 14.8824 9.16669 15.4573 6.80289C15.9309 4.85575 16.0127 3.00789 15.998 1.80062ZM14.1875 0.939503C14.6709 0.945412 15.0541 1.32866 15.06 1.81206C15.0687 2.5274 15.042 3.47756 14.9131 4.53792L11.4615 1.08634C12.4034 0.971802 13.2583 0.938002 13.9389 0.938002C14.0246 0.938002 14.1075 0.938533 14.1875 0.939503ZM1.81161 15.0605C1.32821 15.0546 0.944963 14.6713 0.939084 14.1879C0.930517 13.4869 0.956063 12.5602 1.07844 11.5254L4.47409 14.9211C3.43919 15.0434 2.51248 15.069 1.81161 15.0605ZM11.8146 11.815C10.5358 13.0937 8.77493 14.0127 6.58069 14.5463C6.25947 14.6245 5.94104 14.6911 5.62783 14.7483L1.2512 10.3717C1.30836 10.0585 1.37505 9.74002 1.45319 9.41877C1.9868 7.22456 2.90576 5.46363 4.18449 4.1849C5.46321 2.90618 7.22415 1.98725 9.41839 1.45361C9.71915 1.38044 10.0175 1.31734 10.3113 1.26262L14.7369 5.68822C14.6822 5.98208 14.619 6.2804 14.5459 6.58117C14.0122 8.77541 13.0933 10.5363 11.8146 11.815Z" fill="white"/>
<path d="M12.9024 4.79986C12.8828 4.66757 12.8076 4.54997 12.6959 4.47659C12.5841 4.4032 12.4463 4.38097 12.3171 4.41565L11.3155 4.68402L11.5839 3.68242C11.6185 3.55325 11.5963 3.41545 11.523 3.30364C11.4496 3.19186 11.332 3.11669 11.1997 3.09709L8.91691 2.75849C8.75138 2.734 8.58551 2.79932 8.48129 2.93015C6.45658 5.47087 5.47087 6.45658 2.93012 8.48132C2.79929 8.58554 2.73394 8.75157 2.75852 8.91704L3.09777 11.2006C3.11741 11.3329 3.19258 11.4505 3.30436 11.5239C3.41611 11.5972 3.55391 11.6194 3.68304 11.5848L4.68264 11.3169L4.4148 12.3165C4.38022 12.4456 4.40239 12.5834 4.47571 12.6952C4.5491 12.807 4.66666 12.8822 4.79893 12.9018L7.08253 13.2411C7.10558 13.2445 7.12862 13.2462 7.15151 13.2462C7.29299 13.2462 7.42851 13.182 7.51825 13.0695C9.54302 10.5287 10.5287 9.54295 13.0694 7.51831C13.2002 7.41409 13.2656 7.24809 13.2411 7.08269L12.9024 4.79986ZM3.94829 10.5426L3.726 9.04605C6.11061 7.13469 7.13472 6.11057 9.04608 3.72597L10.5417 3.94779L10.2317 5.10457L10.0067 5.32957L9.70248 5.02533C9.51935 4.84217 9.2224 4.84217 9.0392 5.02533C8.85604 5.20847 8.85604 5.50545 9.0392 5.68862L9.34344 5.99285L8.68012 6.65616L8.37589 6.35193C8.19279 6.16876 7.89577 6.16876 7.71261 6.35193C7.52944 6.53506 7.52944 6.83204 7.71261 7.01521L8.01684 7.31945L7.33646 7.99983L7.03222 7.6956C6.84909 7.51243 6.55211 7.51243 6.36894 7.6956C6.18577 7.87876 6.18577 8.17571 6.36894 8.35888L6.67317 8.66311L5.99282 9.3435L5.68859 9.03926C5.50548 8.85613 5.2085 8.8561 5.0253 9.03926C4.84214 9.2224 4.84214 9.51938 5.0253 9.70255L5.32954 10.0068L5.10316 10.2332L3.94829 10.5426ZM6.95346 12.2736L5.45699 12.0513L5.76641 10.8964L5.99279 10.67L6.29702 10.9743C6.38861 11.0658 6.50864 11.1117 6.62868 11.1117C6.74869 11.1117 6.86875 11.0658 6.96031 10.9743C7.14347 10.7911 7.14347 10.4942 6.96031 10.311L6.65607 10.0067L7.33646 9.32636L7.64069 9.6306C7.73227 9.72218 7.85231 9.76799 7.97232 9.76799C8.09235 9.76799 8.21239 9.72221 8.30397 9.6306C8.48714 9.44743 8.48714 9.15048 8.30397 8.96732L7.99974 8.66308L8.68012 7.9827L8.98436 8.28693C9.07594 8.37851 9.19595 8.42429 9.31598 8.42429C9.43599 8.42429 9.55606 8.37848 9.64761 8.28693C9.83078 8.1038 9.83078 7.80682 9.64761 7.62365L9.34337 7.31941L10.0067 6.6561L10.3109 6.96034C10.4025 7.05192 10.5225 7.09773 10.6426 7.09773C10.7626 7.09773 10.8827 7.05192 10.9742 6.96034C11.1574 6.7772 11.1574 6.48022 10.9742 6.29705L10.67 5.99282L10.895 5.76779L12.0517 5.45786L12.2736 6.95343C9.88896 8.86479 8.86485 9.8889 6.95346 12.2736Z" fill="white"/>
</g>
<defs>
<clipPath id="clip0">
<rect width="16" height="16" fill="white"/>
</clipPath>
</defs>
</svg>
