<svg width="16" height="16" viewBox="0 0 16 16" fill="none" xmlns="http://www.w3.org/2000/svg">
<g clip-path="url(#clip0)">
<path d="M15.5315 8.22437H11.8911C11.6322 8.22437 11.4224 8.43424 11.4224 8.69312V10.5825C11.4224 10.8414 11.6322 11.0512 11.8911 11.0512H15.5315C15.7903 11.0512 16.0002 10.8414 16.0002 10.5825V8.69312C16.0002 8.43424 15.7903 8.22437 15.5315 8.22437ZM15.0627 10.1137H12.3599V9.16187H15.0627V10.1137Z" fill="white"/>
<path d="M14.8403 11.9773H11.1503C11.0639 11.9773 10.9847 11.9266 10.9487 11.8481C10.9458 11.8419 10.9429 11.8359 10.9399 11.8299L9.60084 9.21877L13.244 2.02918C13.2467 2.02383 13.2493 2.01846 13.2518 2.01302C13.4115 1.66549 13.4238 1.27749 13.2864 0.920491C13.1489 0.563584 12.8795 0.283959 12.5277 0.133116C11.8367 -0.163103 11.0158 0.157428 10.6921 0.847741L8.00003 6.09727L5.30793 0.847709C4.98418 0.157428 4.16321 -0.163134 3.47246 0.133116C3.12056 0.283959 2.85112 0.563584 2.71371 0.920491C2.57628 1.27752 2.58856 1.66552 2.74828 2.01305C2.75074 2.01846 2.75337 2.02383 2.75606 2.02918L6.39928 9.2188L5.06028 11.8299C5.05721 11.8359 5.05428 11.8419 5.05146 11.848C5.01537 11.9266 4.93618 11.9773 4.84974 11.9773H1.15971C0.810087 11.9773 0.482744 12.1326 0.261619 12.4035C0.0404936 12.6743 -0.0462565 13.0261 0.0236498 13.3686L0.366744 15.0497C0.476431 15.5872 0.954212 15.9773 1.50278 15.9773H4.53803C5.57428 15.9773 6.52371 15.3708 6.95953 14.4312L8.00003 12.3778L9.04056 14.4312C9.47634 15.3708 10.4257 15.9773 11.462 15.9773H14.4972C15.0458 15.9773 15.5236 15.5872 15.6333 15.0497L15.9764 13.3686C16.0463 13.0261 15.9596 12.6743 15.7385 12.4034C15.5173 12.1326 15.1899 11.9773 14.8403 11.9773ZM10.1505 3.95846L11.0191 4.34587L10.6867 5.0019L9.81478 4.61302L10.1505 3.95846ZM10.9135 2.47052L11.7755 2.85321L11.4433 3.50862L10.5789 3.12305L10.9135 2.47052ZM11.5393 1.24924C11.6493 1.00983 11.9268 0.895584 12.1582 0.994741C12.2758 1.04512 12.3657 1.1384 12.4115 1.2573C12.4564 1.37399 12.4534 1.50062 12.4031 1.61471L12.1998 2.0158L11.342 1.63496L11.5305 1.2674C11.5335 1.26143 11.5365 1.25537 11.5393 1.24924ZM4.22459 2.85318L5.08656 2.47049L5.42118 3.12302L4.55671 3.50858L4.22459 2.85318ZM4.98099 4.34587L5.84962 3.95846L6.18531 4.61305L5.31343 5.00193L4.98099 4.34587ZM3.58859 1.25733C3.63437 1.1384 3.72431 1.04515 3.84187 0.994772C4.07303 0.895584 4.35071 1.0098 4.46078 1.24927C4.46359 1.2554 4.46653 1.26146 4.46959 1.26743L4.65809 1.63499L3.80028 2.01583L3.59706 1.61477C3.54671 1.50068 3.54365 1.37405 3.58859 1.25733ZM5.73771 5.83921L6.61374 5.44849L7.47324 7.12452L6.9279 8.18796L5.73771 5.83921ZM6.1194 14.015C6.11671 14.0204 6.11412 14.0257 6.11162 14.0312C5.83003 14.6439 5.21234 15.0398 4.53806 15.0398H1.50281C1.39781 15.0398 1.30634 14.9651 1.28534 14.8622L0.942275 13.1811C0.923931 13.0914 0.962962 13.0268 0.987837 12.9964C1.01271 12.9659 1.06812 12.9148 1.15977 12.9148H4.84978C5.2974 12.9148 5.70778 12.6542 5.89849 12.2499L9.3864 5.44849L10.2624 5.83921L6.1194 14.015ZM15.0578 13.1812L14.7147 14.8622C14.6937 14.9651 14.6023 15.0398 14.4973 15.0398H11.462C10.7877 15.0398 10.17 14.6439 9.88849 14.0312C9.88599 14.0258 9.8834 14.0204 9.88068 14.0151L8.52556 11.3408L9.07718 10.2522L10.1017 12.2499C10.2924 12.6542 10.7027 12.9148 11.1504 12.9148H14.8404C14.932 12.9148 14.9874 12.9659 15.0123 12.9964C15.0371 13.0268 15.0761 13.0914 15.0578 13.1812Z" fill="white"/>
</g>
<defs>
<clipPath id="clip0">
<rect width="16" height="16" fill="white"/>
</clipPath>
</defs>
</svg>
