<svg width="16" height="16" viewBox="0 0 16 16" fill="none" xmlns="http://www.w3.org/2000/svg">
<g opacity="0.8" clip-path="url(#clip0)">
<path d="M15.5384 5.33309C14.826 3.31961 13.3722 1.70408 11.4448 0.78406C9.51734 -0.135927 7.34697 -0.250305 5.33353 0.462072C3.32005 1.17445 1.70455 2.62825 0.784535 4.55571C-0.135452 6.48314 -0.249798 8.6535 0.462548 10.6669C1.17492 12.6804 2.62873 14.296 4.55615 15.216C5.64858 15.7374 6.819 16 7.9947 16C8.89338 16 9.79513 15.8466 10.6674 15.538C12.6809 14.8256 14.2964 13.3718 15.2164 11.4444C16.1364 9.5169 16.2508 7.3465 15.5384 5.33309ZM14.3708 11.0407C14.3279 11.1306 14.2828 11.2192 14.2365 11.3068L13.8206 9.97759L14.9656 9.16296C14.8574 9.80534 14.6592 10.4366 14.3708 11.0407ZM15.0622 7.94425L13.1955 9.2723L10.6016 8.39242L9.89811 6.2273L11.5405 4.00962L13.8415 4.03214C14.1764 4.52688 14.4505 5.06751 14.6551 5.64561C14.9206 6.396 15.0554 7.17106 15.0622 7.94425ZM8.00147 9.79965L6.32507 8.58167L6.96539 6.61095H9.03753L9.67785 8.58167L8.00147 9.79965ZM5.40131 8.39255L2.80773 9.2723L0.938455 7.94238C0.946169 6.92216 1.17758 5.90744 1.63015 4.95931C1.78523 4.63442 1.96286 4.32486 2.16091 4.03211L4.46242 4.00959L6.10484 6.22727L5.40131 8.39255ZM13.074 3.08757L11.6512 3.07364L11.2267 1.72185C11.9222 2.07863 12.5435 2.54027 13.074 3.08757ZM10.0993 1.25931L10.7878 3.45163L9.14191 5.67397H6.86101L5.21515 3.45163L5.90339 1.26006C6.59284 1.04486 7.30009 0.937511 8.00554 0.937511C8.71232 0.937511 9.41705 1.04533 10.0993 1.25931ZM4.77704 1.71935L4.35173 3.07364L2.92682 3.08757C3.46098 2.53489 4.08424 2.07314 4.77704 1.71935ZM1.03618 9.16189L2.18268 9.97759L1.76518 11.3118C1.60361 11.0061 1.4633 10.6864 1.34584 10.3544C1.20719 9.96241 1.10409 9.56362 1.03618 9.16189ZM2.42636 12.3365L3.10735 10.1601L5.69525 9.28227L7.53294 10.6174V13.3274L5.68591 14.6694C5.44032 14.5836 5.19791 14.484 4.95975 14.3703C3.95238 13.8895 3.09161 13.1933 2.42636 12.3365ZM6.86626 14.97L8.00147 14.1452L9.13485 14.9687C8.75655 15.0311 8.37572 15.0625 7.99542 15.0625C7.61739 15.0625 7.24 15.0314 6.86626 14.97ZM10.3549 14.6546C10.3418 14.6593 10.3285 14.6636 10.3153 14.6681L8.46998 13.3274V10.6175L10.3078 9.28221L12.8959 10.1601L13.5757 12.3326C12.7555 13.3924 11.6484 14.197 10.3549 14.6546Z" fill="white"/>
</g>
<defs>
<clipPath id="clip0">
<rect width="16" height="16" fill="white"/>
</clipPath>
</defs>
</svg>
