<svg width="48" height="48" viewBox="0 0 48 48" fill="none"
  xmlns="http://www.w3.org/2000/svg">
  <circle cx="24" cy="24" r="23.5" fill="#282828" stroke="#383C43"/>
  <path d="M24.3813 31.51C25.1733 31.51 25.9413 31.378 26.6853 31.114C27.4293 30.838 28.0953 30.436 28.6833 29.908C29.2833 29.368 29.7573 28.708 30.1053 27.928C30.4533 27.136 30.6273 26.218 30.6273 25.174V23.824H24.3273V25.894H28.1793V25.948C28.1793 26.632 28.0053 27.226 27.6573 27.73C27.3093 28.222 26.8473 28.606 26.2713 28.882C25.6953 29.146 25.0653 29.278 24.3813 29.278C23.5413 29.278 22.7973 29.08 22.1493 28.684C21.5013 28.288 20.9913 27.742 20.6193 27.046C20.2593 26.338 20.0793 25.516 20.0793 24.58C20.0793 23.644 20.2593 22.828 20.6193 22.132C20.9793 21.424 21.4773 20.878 22.1133 20.494C22.7493 20.098 23.4873 19.9 24.3273 19.9C25.1793 19.9 25.9053 20.116 26.5053 20.548C27.1053 20.98 27.5373 21.544 27.8013 22.24L29.9793 21.196C29.7513 20.56 29.3733 19.978 28.8453 19.45C28.3173 18.91 27.6693 18.478 26.9013 18.154C26.1453 17.83 25.2873 17.668 24.3273 17.668C23.3673 17.668 22.4793 17.842 21.6633 18.19C20.8473 18.526 20.1393 19.006 19.5393 19.63C18.9393 20.242 18.4713 20.974 18.1353 21.826C17.7993 22.666 17.6313 23.584 17.6313 24.58C17.6313 25.576 17.7993 26.5 18.1353 27.352C18.4833 28.192 18.9633 28.924 19.5753 29.548C20.1873 30.172 20.9013 30.658 21.7173 31.006C22.5333 31.342 23.4213 31.51 24.3813 31.51Z" fill="white"/>
</svg>
