<svg width="16" height="17" viewBox="0 0 16 17" fill="white" xmlns="http://www.w3.org/2000/svg">
<g clip-path="url(#clip0)">
<path d="M15.977 6.41426C15.9219 6.24454 15.7752 6.12085 15.5987 6.09523L10.6386 5.37445L8.42034 0.879872C8.3414 0.719872 8.17843 0.618591 8.00003 0.618591C7.82159 0.618591 7.65865 0.719872 7.57968 0.879872L5.36132 5.37445L0.401338 6.09523C0.224808 6.12085 0.0780893 6.24454 0.0229645 6.41423C-0.0321915 6.58394 0.0138083 6.77022 0.141589 6.89475L3.73057 10.3933L2.88345 15.3334C2.85327 15.5093 2.92558 15.6869 3.06992 15.7918C3.15158 15.8512 3.2483 15.8813 3.34548 15.8813C3.42011 15.8813 3.49498 15.8636 3.56354 15.8275L8 13.4951L12.4363 15.8275C12.5942 15.9105 12.7856 15.8967 12.9299 15.7918C13.0743 15.6869 13.1466 15.5092 13.1164 15.3333L12.269 10.3933L15.8584 6.89472C15.9862 6.77022 16.0322 6.58394 15.977 6.41426Z"/>
</g>
<defs>
<clipPath id="clip0">
<rect width="16" height="16" transform="translate(0 0.25)"/>
</clipPath>
</defs>
</svg>
