<svg width="81" height="32" viewBox="0 0 81 32" fill="none" xmlns="http://www.w3.org/2000/svg">
<path d="M5.57324 4.62445H16.8449C18.7213 4.62445 20.1626 5.09121 21.1687 6.0205C22.1751 6.94953 22.678 8.10072 22.678 9.47392C22.678 10.6251 22.3201 11.6131 21.5993 12.4335C21.1234 12.9864 20.4209 13.4171 19.5008 13.7388C20.9012 14.0742 21.9257 14.6499 22.5873 15.4703C23.2445 16.2904 23.5755 17.3192 23.5755 18.5566C23.5755 19.5673 23.3397 20.4738 22.8729 21.2804C22.4016 22.0873 21.758 22.7217 20.9467 23.1933C20.4391 23.4832 19.6777 23.6963 18.6579 23.8277C17.3027 24.0046 16.4052 24.0951 15.9611 24.0951H5.57324V4.62445ZM11.6237 20.0297H14.6921C15.7299 20.0297 16.4596 19.8438 16.8857 19.4768C17.3118 19.1096 17.5248 18.6201 17.5248 17.9991C17.5248 17.4236 17.3162 16.9613 16.8948 16.6123C16.4733 16.2633 15.7345 16.0867 14.6784 16.0867H11.6237V20.0297ZM11.6237 12.3883H14.248C15.1861 12.3883 15.8433 12.225 16.2105 11.9033C16.5775 11.5768 16.7633 11.1101 16.7633 10.4981C16.7633 9.9318 16.5775 9.48746 16.2105 9.17029C15.8433 8.84858 15.1997 8.68986 14.2886 8.68986H11.6237V12.3883Z" fill="white"/>
<path d="M41.7432 4.62445H60.0445V9.43771H53.8988V24.0951H47.889V9.43771H41.7432V4.62445Z" fill="white"/>
<path d="M24.1943 4.62445H40.2928V8.785H30.2313V11.8851H39.5587V15.8553H30.2313V19.6898H40.592V24.0951H24.1943V4.62445Z" fill="white"/>
<path d="M69.056 11.5451H75.2656V23.5287C75.2656 24.7136 75.0783 25.8375 74.7085 26.8911C74.3384 27.9495 73.7577 28.8719 72.9663 29.6633C72.1749 30.4549 71.3461 31.0074 70.4797 31.3306C69.2715 31.7755 67.8197 32.0002 66.1293 32.0002C65.1506 32.0002 64.0829 31.93 62.9261 31.7941C61.7695 31.6583 60.8 31.3868 60.0227 30.9793C59.2454 30.5718 58.5336 29.996 57.892 29.2466C57.2457 28.4974 56.8056 27.7247 56.5668 26.9285C56.1827 25.6502 55.9907 24.517 55.9907 23.5287V11.5451H62.2002V23.8145C62.2002 24.9103 62.5048 25.7674 63.1089 26.3806C63.7175 26.9987 64.5604 27.3079 65.6375 27.3079C66.7006 27.3079 67.5388 27.0036 68.1476 26.3947C68.7518 25.7906 69.056 24.9291 69.056 23.8145V11.5451Z" fill="#FFD610"/>
<path d="M0.42602 -0.000329971H80.4683V29.4232H75.4877C75.671 29.1494 75.8382 28.8655 75.9896 28.5713H79.6163V0.851707H0.851915V28.5713H55.2418C55.3872 28.8581 55.5554 29.1419 55.747 29.4232H0V-0.000329971H0.42602Z" fill="white"/>
</svg>
