<svg width="16" height="17" viewBox="0 0 16 17" fill="white" xmlns="http://www.w3.org/2000/svg">
<g clip-path="url(#clip0)">
<path d="M8.01126 0.25C12.1843 0.25 15.6069 3.44562 15.975 7.52268H9.46585V5.34086C9.46585 5.0471 9.28834 4.78169 9.01708 4.6689C8.74515 4.55624 8.43234 4.6187 8.22446 4.8267L5.31529 7.73588C5.03097 8.0202 5.03097 8.47976 5.31529 8.7642L8.22446 11.6733C8.43234 11.8813 8.74515 11.9438 9.01708 11.8311C9.28834 11.7184 9.46585 11.4529 9.46585 11.1591V8.97727H15.975C15.6069 13.0543 12.1843 16.25 8.01126 16.25C3.59316 16.25 0.0113525 12.6681 0.0113525 8.25004C0.0113525 3.83181 3.59316 0.25 8.01126 0.25V0.25Z"/>
</g>
<defs>
<clipPath id="clip0">
<rect width="16" height="16" transform="translate(0 0.25)"/>
</clipPath>
</defs>
</svg>
