<svg width="16" height="16" viewBox="0 0 16 16" fill="none" xmlns="http://www.w3.org/2000/svg">
<path d="M15.3333 7.33331H8.66666V0.666678C8.66666 0.298476 8.36819 0 7.99998 0C7.63178 0 7.33331 0.298476 7.33331 0.666678V7.33334H0.666678C0.298476 7.33331 0 7.63178 0 7.99998C0 8.36819 0.298476 8.66666 0.666678 8.66666H7.33334V15.3333C7.33334 15.7015 7.63182 16 8.00002 16C8.36823 16 8.6667 15.7015 8.6667 15.3333V8.66666H15.3334C15.7016 8.66666 16 8.36819 16 7.99998C16 7.63178 15.7015 7.33331 15.3333 7.33331Z" fill="#FFD610"/>
</svg>
