<svg width="16" height="16" viewBox="0 0 16 16" fill="none" xmlns="http://www.w3.org/2000/svg">
<g clip-path="url(#clip0)">
<path d="M15.8045 14.862L11.2545 10.3121C12.1359 9.22344 12.6665 7.84011 12.6665 6.33346C12.6665 2.8415 9.82522 0.000183105 6.33325 0.000183105C2.84128 0.000183105 0 2.84147 0 6.33343C0 9.8254 2.84132 12.6667 6.33328 12.6667C7.83992 12.6667 9.22325 12.1361 10.3119 11.2547L14.8619 15.8047C14.9919 15.9347 15.1625 16 15.3332 16C15.5039 16 15.6745 15.9347 15.8045 15.8047C16.0652 15.544 16.0652 15.1227 15.8045 14.862ZM6.33328 11.3334C3.57597 11.3334 1.33333 9.09075 1.33333 6.33343C1.33333 3.57612 3.57597 1.33348 6.33328 1.33348C9.0906 1.33348 11.3332 3.57612 11.3332 6.33343C11.3332 9.09075 9.09057 11.3334 6.33328 11.3334Z" fill="white"/>
</g>
<defs>
<clipPath id="clip0">
<rect width="16" height="16" fill="white"/>
</clipPath>
</defs>
</svg>
