<svg width="16" height="17" viewBox="0 0 16 17" fill="white" xmlns="http://www.w3.org/2000/svg">
<g clip-path="url(#clip0)">
<path d="M15.5206 10.0033L14.05 8.85334C14.0686 8.676 14.0846 8.46869 14.0846 8.24934C14.0846 8.03 14.0693 7.82269 14.05 7.64534L15.522 6.49469C15.7953 6.27869 15.87 5.89534 15.696 5.57603L14.1666 2.93C14.0033 2.63134 13.6453 2.478 13.282 2.612L11.5466 3.30866C11.214 3.06866 10.8653 2.866 10.5046 2.704L10.2406 0.863344C10.1973 0.514 9.89327 0.25 9.53396 0.25H6.4673C6.10796 0.25 5.80465 0.514 5.76196 0.858L5.4973 2.70534C5.14796 2.86269 4.80465 3.06269 4.4573 3.31L2.7173 2.61134C2.39127 2.48534 2.00127 2.62666 1.83927 2.924L0.307958 5.57334C0.127302 5.87869 0.201958 6.27534 0.481302 6.49669L1.95196 7.64669C1.92861 7.87134 1.9173 8.06669 1.9173 8.25003C1.9173 8.43338 1.92865 8.62869 1.95196 8.85403L0.479958 10.0047C0.206615 10.2213 0.132615 10.6047 0.306615 10.9233L1.83596 13.5693C1.9993 13.8673 2.35396 14.022 2.72061 13.8873L4.45596 13.1907C4.78796 13.43 5.13661 13.6327 5.4973 13.7953L5.7613 15.6353C5.80461 15.986 6.10796 16.25 6.46796 16.25H9.53461C9.89396 16.25 10.198 15.986 10.2406 15.642L10.5053 13.7953C10.8546 13.6373 11.1973 13.438 11.5453 13.19L13.2853 13.8887C13.3693 13.9213 13.4566 13.938 13.5466 13.938C13.8053 13.938 14.0433 13.7967 14.1633 13.5767L15.6993 10.9167C15.87 10.6047 15.7953 10.2213 15.5206 10.0033ZM8.00062 10.9167C6.52996 10.9167 5.33396 9.72066 5.33396 8.25C5.33396 6.77934 6.52996 5.58334 8.00062 5.58334C9.47127 5.58334 10.6673 6.77934 10.6673 8.25C10.6673 9.72066 9.47127 10.9167 8.00062 10.9167Z"/>
</g>
<defs>
<clipPath id="clip0">
<rect width="16" height="16" transform="translate(0 0.25)"/>
</clipPath>
</defs>
</svg>
