<svg width="16" height="17" viewBox="0 0 16 17" fill="white" xmlns="http://www.w3.org/2000/svg">
<path d="M0.973631 14.1494H13.9521C14.4893 14.1494 14.9258 13.7129 14.9258 13.1757V10.9786H10.2669C9.91805 10.9786 9.57728 10.9104 9.25761 10.7741C8.94929 10.6443 8.6718 10.4561 8.43489 10.2192C8.19797 9.98224 8.00974 9.70474 7.87992 9.39643C7.74523 9.07675 7.67546 8.73598 7.67546 8.3871V8.11286C7.67546 7.76397 7.74361 7.4232 7.87992 7.10353C8.00974 6.79521 8.19799 6.51773 8.43489 6.28081C8.67182 6.04389 8.94929 5.85566 9.25761 5.72584C9.57728 5.59115 9.91805 5.52138 10.2669 5.52138H14.9258V3.32422C14.9258 2.7871 14.4893 2.35059 13.9521 2.35059H0.973631C0.436511 2.35059 0 2.7871 0 3.32422V13.1757C0 13.7128 0.436511 14.1494 0.973631 14.1494Z"/>
<path d="M16 7.22522C16 6.82116 15.6738 6.495 15.2697 6.495H14.9257H10.2669C9.37276 6.495 8.64905 7.21873 8.64905 8.11286V8.3871C8.64905 9.28123 9.37278 10.0049 10.2669 10.0049H14.9257H15.2697C15.6738 10.0049 16 9.67878 16 9.27472V7.22522ZM10.5314 9.10922C10.0559 9.10922 9.67136 8.72465 9.67136 8.24917C9.67136 7.77371 10.0559 7.38912 10.5314 7.38912C11.0069 7.38912 11.3914 7.77371 11.3914 8.24917C11.3914 8.72465 11.0069 9.10922 10.5314 9.10922Z"/>
</svg>
